<?xml version="1.0" encoding="UTF-8"?>
<!DOCTYPE svg PUBLIC "-//W3C//DTD SVG 1.1//EN" "http://www.w3.org/Graphics/SVG/1.1/DTD/svg11.dtd">
<svg xmlns="http://www.w3.org/2000/svg" version="1.1" width="602px" height="249px" style="shape-rendering:geometricPrecision; text-rendering:geometricPrecision; image-rendering:optimizeQuality; fill-rule:evenodd; clip-rule:evenodd" xmlns:xlink="http://www.w3.org/1999/xlink">
<g><path style="opacity:0.115" fill="#fcebc3" d="M 98.5,56.5 C 88.4944,56.3335 78.4944,56.5002 68.5,57C 66.8455,57.6077 65.1789,58.1077 63.5,58.5C 64.347,57.0337 65.6803,56.2004 67.5,56C 78.0083,55.1748 88.3416,55.3415 98.5,56.5 Z"/></g>
<g><path style="opacity:0.69" fill="#cfb37b" d="M 158.5,61.5 C 153.526,60.555 148.526,59.3883 143.5,58C 118.833,57.3333 94.1667,57.3333 69.5,58C 56.0605,64.596 54.0605,73.7627 63.5,85.5C 60.909,84.7457 59.0757,83.079 58,80.5C 54.4771,73.9682 54.8104,67.6349 59,61.5C 60.129,59.8588 61.629,58.8588 63.5,58.5C 65.1789,58.1077 66.8455,57.6077 68.5,57C 78.4944,56.5002 88.4944,56.3335 98.5,56.5C 114.053,55.3702 129.72,55.5369 145.5,57C 150.316,57.4441 154.65,58.9441 158.5,61.5 Z"/></g>
<g><path style="opacity:1" fill="#d89b35" d="M 158.5,61.5 C 160.544,63.934 163.044,65.934 166,67.5C 166.483,68.448 166.649,69.448 166.5,70.5C 169.95,69.7564 171.616,71.0897 171.5,74.5C 176.314,74.3743 178.814,76.7076 179,81.5C 180.892,82.13 182.559,83.13 184,84.5C 185.643,87.9614 187.81,90.9614 190.5,93.5C 191.896,101.676 192.896,110.009 193.5,118.5C 193.025,125.169 192.525,131.835 192,138.5C 189.723,141.829 188.557,145.496 188.5,149.5C 186.983,149.511 185.816,150.177 185,151.5C 182.715,155.012 180.215,158.345 177.5,161.5C 178.526,154.937 180.193,148.604 182.5,142.5C 180.007,142.976 178.007,144.31 176.5,146.5C 175.614,145.675 175.281,144.675 175.5,143.5C 174.5,143.5 173.5,143.5 172.5,143.5C 172.693,139.987 172.026,136.654 170.5,133.5C 169.115,134.551 168.115,135.884 167.5,137.5C 168.754,139.334 169.421,141.334 169.5,143.5C 168.5,143.5 167.5,143.5 166.5,143.5C 163.856,133.307 162.356,133.307 162,143.5C 159.315,140.783 157.482,141.45 156.5,145.5C 160.344,148.432 159.678,150.432 154.5,151.5C 152.896,151.061 151.396,150.394 150,149.5C 148.121,151.013 145.954,151.679 143.5,151.5C 145.751,150.182 147.751,148.516 149.5,146.5C 152.126,144.177 154.793,141.843 157.5,139.5C 165.183,132.552 167.683,123.885 165,113.5C 164.79,111.942 164.29,110.609 163.5,109.5C 162.326,108.486 161.66,107.153 161.5,105.5C 160.858,100.522 158.525,96.5224 154.5,93.5C 151.991,92.0787 149.657,90.4121 147.5,88.5C 144.232,87.513 140.898,87.1796 137.5,87.5C 112.991,86.7531 88.3244,86.0864 63.5,85.5C 54.0605,73.7627 56.0605,64.596 69.5,58C 94.1667,57.3333 118.833,57.3333 143.5,58C 148.526,59.3883 153.526,60.555 158.5,61.5 Z"/></g>
<g><path style="opacity:0.993" fill="#3b3b3b" d="M 458.5,65.5 C 490.216,65.0297 521.883,65.5297 553.5,67C 557.235,68.7997 558.902,71.7997 558.5,76C 558.553,80.2947 556.553,83.2947 552.5,85C 540.171,85.4999 527.838,85.6665 515.5,85.5C 515.667,118.835 515.5,152.168 515,185.5C 513.176,190.589 509.509,193.255 504,193.5C 497.392,193.207 493.392,189.874 492,183.5C 491.5,150.835 491.333,118.168 491.5,85.5C 479.162,85.6665 466.829,85.4999 454.5,85C 447.848,80.4016 446.848,74.735 451.5,68C 453.927,67.0977 456.26,66.2644 458.5,65.5 Z"/></g>
<g><path style="opacity:0.996" fill="#3a3a3a" d="M 425.5,64.5 C 431.365,64.5343 435.531,67.201 438,72.5C 438.667,110.167 438.667,147.833 438,185.5C 433.494,193.809 426.994,195.642 418.5,191C 416.396,188.958 415.229,186.458 415,183.5C 414.333,147.167 414.333,110.833 415,74.5C 416.459,68.8713 419.959,65.538 425.5,64.5 Z"/></g>
<g><path style="opacity:0.984" fill="#383838" d="M 216.5,64.5 C 221.692,64.676 225.525,67.0094 228,71.5C 228.667,110.167 228.667,148.833 228,187.5C 225.542,191.554 221.875,193.554 217,193.5C 210.924,193.312 207.258,190.312 206,184.5C 205.333,147.5 205.333,110.5 206,73.5C 206.45,71.481 207.283,69.6477 208.5,68C 211.158,66.522 213.825,65.3554 216.5,64.5 Z"/></g>
<g><path style="opacity:1" fill="#d5aa60" d="M 158.5,61.5 C 163.048,63.1072 167.381,65.2739 171.5,68C 175.667,72.1667 179.833,76.3333 184,80.5C 186.721,84.6078 188.887,88.9411 190.5,93.5C 187.81,90.9614 185.643,87.9614 184,84.5C 182.559,83.13 180.892,82.13 179,81.5C 178.814,76.7076 176.314,74.3743 171.5,74.5C 171.616,71.0897 169.95,69.7564 166.5,70.5C 166.649,69.448 166.483,68.448 166,67.5C 163.044,65.934 160.544,63.934 158.5,61.5 Z"/></g>
<g><path style="opacity:0.778" fill="#c89e53" d="M 63.5,85.5 C 88.3244,86.0864 112.991,86.7531 137.5,87.5C 114.833,87.5 92.1667,87.5 69.5,87.5C 67.1016,87.7406 65.1016,87.0739 63.5,85.5 Z"/></g>
<g><path style="opacity:1" fill="#e4c488" d="M 69.5,87.5 C 92.1667,87.5 114.833,87.5 137.5,87.5C 140.898,87.1796 144.232,87.513 147.5,88.5C 149.657,90.4121 151.991,92.0787 154.5,93.5C 158.525,96.5224 160.858,100.522 161.5,105.5C 156.998,96.3973 149.665,90.8973 139.5,89C 115.996,88.8321 92.6631,88.3321 69.5,87.5 Z"/></g>
<g><path style="opacity:0.992" fill="#363636" d="M 79.5,100.5 C 97.5031,100.333 115.503,100.5 133.5,101C 144,105.492 146.834,112.992 142,123.5C 140.337,125.917 138.171,127.75 135.5,129C 130.4,130.049 125.233,130.549 120,130.5C 113.154,130.072 106.321,129.905 99.5,130C 93.3221,130.51 89.1555,133.677 87,139.5C 86.6667,156.5 86.3333,173.5 86,190.5C 81.0219,203.115 72.5219,205.948 60.5,199C 58.8978,197.065 57.7311,194.899 57,192.5C 56.3333,169.5 56.3333,146.5 57,123.5C 60.6753,111.992 68.1753,104.326 79.5,100.5 Z"/></g>
<g><path style="opacity:0.994" fill="#383838" d="M 293.5,184.5 C 293.66,182.801 293.494,181.134 293,179.5C 292.283,180.044 291.783,180.711 291.5,181.5C 288.95,186.543 284.95,190.043 279.5,192C 265.602,196.215 253.435,193.382 243,183.5C 235.423,173.221 234.757,162.554 241,151.5C 249.186,144.658 258.686,141.158 269.5,141C 277.159,140.5 284.826,140.334 292.5,140.5C 293.649,133.472 291.982,127.305 287.5,122C 278.803,119.216 270.137,119.55 261.5,123C 256.639,124.841 251.805,126.675 247,128.5C 239.216,125.178 237.549,119.845 242,112.5C 258.746,102.632 276.58,100.132 295.5,105C 306.161,109.674 312.328,117.841 314,129.5C 314.667,148.833 314.667,168.167 314,187.5C 309.258,193.764 303.425,194.931 296.5,191C 294.549,189.266 293.549,187.099 293.5,184.5 Z M 277.5,152.5 C 282.5,152.5 287.5,152.5 292.5,152.5C 293.149,170.361 284.815,178.194 267.5,176C 258.601,170.792 257.268,164.125 263.5,156C 268.224,154.506 272.891,153.339 277.5,152.5 Z"/></g>
<g><path style="opacity:0.994" fill="#393939" d="M 333.5,102.5 C 343.146,102.235 347.646,106.901 347,116.5C 352.298,109.097 359.465,104.597 368.5,103C 380.705,100.737 391.205,103.903 400,112.5C 405.637,122.008 407.97,132.341 407,143.5C 407.749,158.191 407.416,172.858 406,187.5C 405.215,189.286 404.049,190.786 402.5,192C 398.625,193.52 394.625,193.854 390.5,193C 388,191.833 386.167,190 385,187.5C 383.705,168.898 383.038,150.232 383,131.5C 381.157,124.138 376.323,120.471 368.5,120.5C 359.155,120.744 352.655,125.077 349,133.5C 348.014,151.847 347.014,170.18 346,188.5C 340.28,194.358 333.947,195.024 327,190.5C 326.333,189.167 325.667,187.833 325,186.5C 324.333,160.833 324.333,135.167 325,109.5C 326.866,105.784 329.699,103.45 333.5,102.5 Z"/></g>
<g><path style="opacity:1" fill="#d8ab60" d="M 190.5,93.5 C 196.831,107.626 197.997,122.293 194,137.5C 192.939,141.95 191.105,145.95 188.5,149.5C 188.557,145.496 189.723,141.829 192,138.5C 192.525,131.835 193.025,125.169 193.5,118.5C 192.896,110.009 191.896,101.676 190.5,93.5 Z"/></g>
<g><path style="opacity:0.863" fill="#dcbb7f" d="M 163.5,109.5 C 164.29,110.609 164.79,111.942 165,113.5C 167.683,123.885 165.183,132.552 157.5,139.5C 163.461,130.362 165.461,120.362 163.5,109.5 Z"/></g>
<g><path style="opacity:1" fill="#d89b35" d="M 177.5,161.5 C 176.18,162.942 174.514,163.608 172.5,163.5C 172.5,165.167 172.5,166.833 172.5,168.5C 171.127,168.343 169.793,168.51 168.5,169C 168.833,169.333 169.167,169.667 169.5,170C 167.051,170.725 164.717,171.725 162.5,173C 161.748,173.671 161.414,174.504 161.5,175.5C 156.324,176.504 151.324,178.004 146.5,180C 135.867,181.195 125.2,181.695 114.5,181.5C 105.168,178.82 101.501,172.82 103.5,163.5C 104.999,162.322 105.999,160.655 106.5,158.5C 108.924,157.577 110.924,156.077 112.5,154C 122.785,152.735 133.119,151.902 143.5,151.5C 145.954,151.679 148.121,151.013 150,149.5C 151.396,150.394 152.896,151.061 154.5,151.5C 159.678,150.432 160.344,148.432 156.5,145.5C 157.482,141.45 159.315,140.783 162,143.5C 162.356,133.307 163.856,133.307 166.5,143.5C 167.5,143.5 168.5,143.5 169.5,143.5C 169.421,141.334 168.754,139.334 167.5,137.5C 168.115,135.884 169.115,134.551 170.5,133.5C 172.026,136.654 172.693,139.987 172.5,143.5C 173.5,143.5 174.5,143.5 175.5,143.5C 175.281,144.675 175.614,145.675 176.5,146.5C 178.007,144.31 180.007,142.976 182.5,142.5C 180.193,148.604 178.526,154.937 177.5,161.5 Z"/></g>
<g><path style="opacity:1" fill="#d8b97a" d="M 149.5,146.5 C 147.751,148.516 145.751,150.182 143.5,151.5C 133.119,151.902 122.785,152.735 112.5,154C 110.924,156.077 108.924,157.577 106.5,158.5C 105.999,160.655 104.999,162.322 103.5,163.5C 104.296,157.853 107.296,153.686 112.5,151C 121.791,149.85 131.124,149.184 140.5,149C 143.546,148.261 146.546,147.428 149.5,146.5 Z"/></g>
<g><path style="opacity:1" fill="#dab777" d="M 188.5,149.5 C 182.741,161.593 173.741,170.26 161.5,175.5C 161.414,174.504 161.748,173.671 162.5,173C 164.717,171.725 167.051,170.725 169.5,170C 169.167,169.667 168.833,169.333 168.5,169C 169.793,168.51 171.127,168.343 172.5,168.5C 172.5,166.833 172.5,165.167 172.5,163.5C 174.514,163.608 176.18,162.942 177.5,161.5C 180.215,158.345 182.715,155.012 185,151.5C 185.816,150.177 186.983,149.511 188.5,149.5 Z"/></g>
<g><path style="opacity:0.749" fill="#d9ba80" d="M 161.5,175.5 C 155.844,179.331 149.511,181.497 142.5,182C 137.961,182.253 133.461,182.753 129,183.5C 124.02,182.907 119.186,182.24 114.5,181.5C 125.2,181.695 135.867,181.195 146.5,180C 151.324,178.004 156.324,176.504 161.5,175.5 Z"/></g>
<g><path style="opacity:0.137" fill="#b9b9b9" d="M 293.5,184.5 C 292.833,183.5 292.167,182.5 291.5,181.5C 291.783,180.711 292.283,180.044 293,179.5C 293.494,181.134 293.66,182.801 293.5,184.5 Z"/></g>
</svg>
