<?xml version="1.0" encoding="UTF-8"?>
<!DOCTYPE svg PUBLIC "-//W3C//DTD SVG 1.1//EN" "http://www.w3.org/Graphics/SVG/1.1/DTD/svg11.dtd">
<svg xmlns="http://www.w3.org/2000/svg" version="1.1" width="546px" height="240px" style="shape-rendering:geometricPrecision; text-rendering:geometricPrecision; image-rendering:optimizeQuality; fill-rule:evenodd; clip-rule:evenodd" xmlns:xlink="http://www.w3.org/1999/xlink">
<g><path style="opacity:0.361" fill="#888888" d="M 255.5,77.5 C 249.833,77.5 244.167,77.5 238.5,77.5C 238.279,80.2788 238.612,82.9455 239.5,85.5C 237.846,83.4403 236.846,80.9403 236.5,78C 236.833,77.6667 237.167,77.3333 237.5,77C 243.681,76.1808 249.681,76.3475 255.5,77.5 Z"/></g>
<g><path style="opacity:0.999" fill="#fdfdfd" d="M 255.5,77.5 C 255.53,98.0417 255.53,118.375 255.5,138.5C 256.552,140.256 258.219,140.923 260.5,140.5C 260.5,142.833 260.5,145.167 260.5,147.5C 252.833,147.5 245.167,147.5 237.5,147.5C 237.192,145.076 237.526,142.743 238.5,140.5C 239.736,139.754 241.07,139.421 242.5,139.5C 243.117,139.389 243.617,139.056 244,138.5C 244.667,121.167 244.667,103.833 244,86.5C 243.329,85.7476 242.496,85.4142 241.5,85.5C 240.833,85.5 240.167,85.5 239.5,85.5C 238.612,82.9455 238.279,80.2788 238.5,77.5C 244.167,77.5 249.833,77.5 255.5,77.5 Z"/></g>
<g><path style="opacity:0.631" fill="#a6a6a6" d="M 215.5,82.5 C 203.5,82.5 191.5,82.5 179.5,82.5C 178.453,81.9222 178.62,81.2555 180,80.5C 191.931,81.1572 203.765,81.8239 215.5,82.5 Z"/></g>
<g><path style="opacity:0.599" fill="#959595" d="M 423.5,90.5 C 424.568,89.5655 425.901,89.2322 427.5,89.5C 427.5,87.1667 427.5,84.8333 427.5,82.5C 419.833,82.5 412.167,82.5 404.5,82.5C 404.5,85.1667 404.5,87.8333 404.5,90.5C 403.523,87.7131 403.19,84.7131 403.5,81.5C 412.173,81.3336 420.84,81.5002 429.5,82C 428.89,84.3692 428.723,86.8692 429,89.5C 427.301,90.4061 425.467,90.7394 423.5,90.5 Z"/></g>
<g><path style="opacity:0.999" fill="#f6f6f6" d="M 179.5,82.5 C 191.5,82.5 203.5,82.5 215.5,82.5C 226.688,84.3648 232.021,91.0315 231.5,102.5C 231.579,112.185 227.245,119.018 218.5,123C 213.58,124.25 208.58,124.75 203.5,124.5C 201.167,124.5 198.833,124.5 196.5,124.5C 196.5,129.5 196.5,134.5 196.5,139.5C 197.833,139.5 199.167,139.5 200.5,139.5C 202.924,139.192 205.257,139.526 207.5,140.5C 206.791,143 206.458,145.333 206.5,147.5C 197.5,147.5 188.5,147.5 179.5,147.5C 179.5,145.167 179.5,142.833 179.5,140.5C 180.791,140.737 181.791,140.404 182.5,139.5C 183.496,139.586 184.329,139.252 185,138.5C 185.828,122.328 185.661,106.328 184.5,90.5C 181.955,90.8495 179.955,90.0162 178.5,88C 179.406,86.3005 179.739,84.4672 179.5,82.5 Z M 198.5,91.5 C 201.5,91.5 204.5,91.5 207.5,91.5C 209.936,92.871 212.603,93.871 215.5,94.5C 217.97,98.095 218.97,102.095 218.5,106.5C 217.11,107.899 216.11,109.566 215.5,111.5C 214.29,111.932 213.29,112.599 212.5,113.5C 207.547,114.329 202.547,114.663 197.5,114.5C 197.201,106.747 197.534,99.0804 198.5,91.5 Z"/></g>
<g><path style="opacity:1" fill="#f8f8f8" d="M 423.5,90.5 C 422.169,98.3049 421.502,106.472 421.5,115C 421.502,123.528 422.169,131.695 423.5,139.5C 425.199,139.34 426.866,139.506 428.5,140C 428.659,142.563 428.325,145.23 427.5,148C 419.507,148.5 411.507,148.666 403.5,148.5C 403.5,145.833 403.5,143.167 403.5,140.5C 406.393,140.969 408.393,139.969 409.5,137.5C 410.166,129.841 410.5,122.007 410.5,114C 410.498,105.804 409.831,97.9703 408.5,90.5C 407.167,90.5 405.833,90.5 404.5,90.5C 404.5,87.8333 404.5,85.1667 404.5,82.5C 412.167,82.5 419.833,82.5 427.5,82.5C 427.5,84.8333 427.5,87.1667 427.5,89.5C 425.901,89.2322 424.568,89.5655 423.5,90.5 Z"/></g>
<g><path style="opacity:0.999" fill="#f4f4f4" d="M 474.5,94.5 C 474.5,93.5 474.5,92.5 474.5,91.5C 473.5,91.5 472.5,91.5 471.5,91.5C 469.5,91.5 467.5,91.5 465.5,91.5C 464.504,107.325 464.17,123.325 464.5,139.5C 465.5,139.5 466.5,139.5 467.5,139.5C 469.75,139.181 471.75,139.681 473.5,141C 472.707,143.432 472.374,145.766 472.5,148C 463.173,148.5 453.839,148.666 444.5,148.5C 444.5,145.5 444.5,142.5 444.5,139.5C 446.903,139.552 449.236,139.219 451.5,138.5C 452.831,131.03 453.498,123.196 453.5,115C 453.498,106.804 452.831,98.9703 451.5,91.5C 448.721,91.2786 446.054,91.612 443.5,92.5C 442.539,94.2646 442.205,96.2646 442.5,98.5C 439.167,98.5 435.833,98.5 432.5,98.5C 432.5,92.8333 432.5,87.1667 432.5,81.5C 449.833,81.5 467.167,81.5 484.5,81.5C 485.387,87.1454 485.554,92.812 485,98.5C 481.606,99.4558 478.106,99.7892 474.5,99.5C 474.5,97.8333 474.5,96.1667 474.5,94.5 Z"/></g>
<g><path style="opacity:0.271" fill="#214f74" d="M 95.5,87.5 C 93.516,86.8443 91.516,86.1776 89.5,85.5C 87.4035,85.9766 85.4035,86.6433 83.5,87.5C 87.2589,82.4566 91.2589,82.4566 95.5,87.5 Z"/></g>
<g><path style="opacity:0.51" fill="#172c73" d="M 127.5,86.5 C 125.143,86.3367 122.81,86.5034 120.5,87C 119.944,87.3826 119.611,87.8826 119.5,88.5C 118.167,89.5 116.833,90.5 115.5,91.5C 118.003,85.4558 122.003,83.7891 127.5,86.5 Z"/></g>
<g><path style="opacity:1" fill="#2048b6" d="M 127.5,86.5 C 130.764,88.0941 133.431,90.4275 135.5,93.5C 132.975,91.8229 130.309,90.3229 127.5,89C 124.854,88.5026 122.187,88.3359 119.5,88.5C 119.611,87.8826 119.944,87.3826 120.5,87C 122.81,86.5034 125.143,86.3367 127.5,86.5 Z"/></g>
<g><path style="opacity:1" fill="#2b91cf" d="M 95.5,87.5 C 100.167,91.8333 104.833,96.1667 109.5,100.5C 109.5,100.833 109.5,101.167 109.5,101.5C 106.507,100.222 103.507,98.8889 100.5,97.5C 96.2165,99.5469 93.8832,98.2136 93.5,93.5C 94.5,93.5 95.5,93.5 96.5,93.5C 96.5,92.5 96.5,91.5 96.5,90.5C 93.1405,89.7904 91.3071,91.1238 91,94.5C 89.6485,92.4062 89.1485,90.0728 89.5,87.5C 88.1667,87.5 86.8333,87.5 85.5,87.5C 85.7892,91.1064 85.4558,94.6064 84.5,98C 86.0368,99.1096 86.7035,100.61 86.5,102.5C 87.9778,102.238 89.3112,102.571 90.5,103.5C 91.8059,106.639 94.1393,108.472 97.5,109C 96.0577,109.377 95.0577,110.21 94.5,111.5C 93.7611,111.631 93.0944,111.464 92.5,111C 89.3307,106.999 85.9973,103.166 82.5,99.5C 81.2575,95.5159 81.2575,91.5159 82.5,87.5C 82.8333,87.5 83.1667,87.5 83.5,87.5C 85.4035,86.6433 87.4035,85.9766 89.5,85.5C 91.516,86.1776 93.516,86.8443 95.5,87.5 Z"/></g>
<g><path style="opacity:0.557" fill="#132d76" d="M 69.5,95.5 C 66.7261,94.2774 64.0594,92.7774 61.5,91C 59.5273,90.5045 57.5273,90.3379 55.5,90.5C 57.8779,88.0821 60.5446,87.9155 63.5,90C 65.9962,91.331 67.9962,93.1644 69.5,95.5 Z"/></g>
<g><path style="opacity:0.584" fill="#676767" d="M 207.5,91.5 C 210.716,91.3455 213.383,92.3455 215.5,94.5C 212.603,93.871 209.936,92.871 207.5,91.5 Z"/></g>
<g><path style="opacity:0.251" fill="#4c4c4c" d="M 471.5,91.5 C 472.5,91.5 473.5,91.5 474.5,91.5C 474.5,92.5 474.5,93.5 474.5,94.5C 473.167,93.8333 472.167,92.8333 471.5,91.5 Z"/></g>
<g><path style="opacity:0.545" fill="#255377" d="M 82.5,87.5 C 81.2575,91.5159 81.2575,95.5159 82.5,99.5C 80.7587,97.9872 79.7587,95.9872 79.5,93.5C 79.8532,90.4628 80.8532,88.4628 82.5,87.5 Z"/></g>
<g><path style="opacity:0.701" fill="#bcbcbc" d="M 241.5,85.5 C 242.496,85.4142 243.329,85.7476 244,86.5C 244.667,103.833 244.667,121.167 244,138.5C 243.617,139.056 243.117,139.389 242.5,139.5C 243.109,130.487 243.442,121.154 243.5,111.5C 243.333,103.5 243.167,95.5 243,87.5C 242.283,86.9558 241.783,86.2891 241.5,85.5 Z"/></g>
<g><path style="opacity:0.998" fill="#123183" d="M 55.5,90.5 C 52.8572,93.3396 52.0239,96.673 53,100.5C 56.1127,104.714 58.9461,109.048 61.5,113.5C 57.12,110.286 53.62,106.286 51,101.5C 50.1593,97.8798 50.826,94.5464 53,91.5C 53.6708,90.7476 54.5041,90.4142 55.5,90.5 Z"/></g>
<g><path style="opacity:0.604" fill="#122a75" d="M 69.5,95.5 C 73.1667,98.5 76.5,101.833 79.5,105.5C 75.1667,103.167 71.8333,99.8333 69.5,95.5 Z"/></g>
<g><path style="opacity:0.999" fill="#efefef" d="M 311.5,99.5 C 311.171,112.677 311.505,125.677 312.5,138.5C 313.552,140.256 315.219,140.923 317.5,140.5C 317.5,142.833 317.5,145.167 317.5,147.5C 312.5,147.5 307.5,147.5 302.5,147.5C 302.785,145.712 302.452,144.045 301.5,142.5C 300.893,142.624 300.56,142.957 300.5,143.5C 300.586,144.496 300.252,145.329 299.5,146C 278.798,153.633 268.131,146.299 267.5,124C 267.619,118.387 268.952,113.22 271.5,108.5C 272.906,108.027 273.573,107.027 273.5,105.5C 276.439,100.687 280.772,97.854 286.5,97C 295.115,95.2922 303.448,96.1256 311.5,99.5 Z M 296.5,105.5 C 298.536,106.626 299.87,108.293 300.5,110.5C 300.773,118.888 300.44,127.221 299.5,135.5C 297.833,136.5 296.5,137.833 295.5,139.5C 287.635,141.481 282.801,138.481 281,130.5C 280.209,124.704 280.709,119.038 282.5,113.5C 283.674,112.486 284.34,111.153 284.5,109.5C 287.831,106.39 291.831,105.056 296.5,105.5 Z"/></g>
<g><path style="opacity:0.999" fill="#f6f6f6" d="M 371.5,108.5 C 371.334,118.839 371.5,129.172 372,139.5C 373.699,140.406 375.533,140.739 377.5,140.5C 377.5,142.833 377.5,145.167 377.5,147.5C 369.833,147.5 362.167,147.5 354.5,147.5C 353.167,145.167 353.167,142.833 354.5,140.5C 356.199,140.66 357.866,140.494 359.5,140C 360.252,139.329 360.586,138.496 360.5,137.5C 360.65,128.143 360.317,118.809 359.5,109.5C 359.144,107.81 358.144,106.81 356.5,106.5C 353.542,105.459 350.542,105.459 347.5,106.5C 345.821,106.892 344.154,107.392 342.5,108C 343.252,108.671 343.586,109.504 343.5,110.5C 342.89,111.391 342.557,112.391 342.5,113.5C 341.507,122.318 341.173,131.318 341.5,140.5C 343.5,140.5 345.5,140.5 347.5,140.5C 347.776,142.891 347.776,145.224 347.5,147.5C 339.833,147.5 332.167,147.5 324.5,147.5C 324.5,145.167 324.5,142.833 324.5,140.5C 326.467,140.739 328.301,140.406 330,139.5C 330.826,128.326 330.659,117.326 329.5,106.5C 328.5,106.5 327.5,106.5 326.5,106.5C 325.5,106.5 324.5,106.5 323.5,106.5C 323.5,104.833 323.5,103.167 323.5,101.5C 323.5,100.5 323.5,99.5 323.5,98.5C 328.833,98.5 334.167,98.5 339.5,98.5C 339.5,100.167 339.5,101.833 339.5,103.5C 341.619,103.532 342.952,102.532 343.5,100.5C 345.09,98.7662 347.09,97.5995 349.5,97C 354.167,96.3333 358.833,96.3333 363.5,97C 368.383,99.3693 371.05,103.203 371.5,108.5 Z"/></g>
<g><path style="opacity:0.62" fill="#a4a4a4" d="M 198.5,91.5 C 197.534,99.0804 197.201,106.747 197.5,114.5C 196.835,110.849 196.501,107.015 196.5,103C 196.51,98.771 197.177,94.9377 198.5,91.5 Z"/></g>
<g><path style="opacity:0.369" fill="#6c6c6c" d="M 443.5,92.5 C 443.5,94.8333 443.5,97.1667 443.5,99.5C 439.629,99.815 435.962,99.4816 432.5,98.5C 435.833,98.5 439.167,98.5 442.5,98.5C 442.205,96.2646 442.539,94.2646 443.5,92.5 Z"/></g>
<g><path style="opacity:0.408" fill="#193d98" d="M 135.5,93.5 C 138.5,95.8333 141.167,98.5 143.5,101.5C 139.51,100.211 136.843,97.5443 135.5,93.5 Z"/></g>
<g><path style="opacity:0.592" fill="#838383" d="M 343.5,100.5 C 342.952,102.532 341.619,103.532 339.5,103.5C 339.5,101.833 339.5,100.167 339.5,98.5C 334.167,98.5 328.833,98.5 323.5,98.5C 323.5,99.5 323.5,100.5 323.5,101.5C 322.156,99.8151 322.323,98.1484 324,96.5C 329.211,97.1356 334.711,97.6356 340.5,98C 340.982,99.0084 341.148,100.175 341,101.5C 341.671,100.748 342.504,100.414 343.5,100.5 Z"/></g>
<g><path style="opacity:0.914" fill="#14479f" d="M 115.5,91.5 C 114.326,95.4841 113.493,99.4841 113,103.5C 113.414,103.957 113.914,104.291 114.5,104.5C 115.631,103.249 116.964,102.249 118.5,101.5C 119.416,101.543 120.083,101.876 120.5,102.5C 120.167,102.5 119.833,102.5 119.5,102.5C 116.777,104.271 116.111,106.605 117.5,109.5C 116.833,109.167 116.167,108.833 115.5,108.5C 113.263,106.353 111.263,104.02 109.5,101.5C 109.5,101.167 109.5,100.833 109.5,100.5C 111.748,97.672 113.748,94.672 115.5,91.5 Z"/></g>
<g><path style="opacity:0.452" fill="#7e7e7e" d="M 184.5,90.5 C 185.661,106.328 185.828,122.328 185,138.5C 184.329,139.252 183.496,139.586 182.5,139.5C 182.783,138.711 183.283,138.044 184,137.5C 184.5,121.837 184.667,106.17 184.5,90.5 Z"/></g>
<g><path style="opacity:0.369" fill="#092467" d="M 119.5,102.5 C 119.833,102.5 120.167,102.5 120.5,102.5C 126.227,107.224 131.227,112.558 135.5,118.5C 129.833,113.5 124.5,108.167 119.5,102.5 Z"/></g>
<g><path style="opacity:1" fill="#1554e5" d="M 119.5,88.5 C 122.187,88.3359 124.854,88.5026 127.5,89C 130.309,90.3229 132.975,91.8229 135.5,93.5C 136.843,97.5443 139.51,100.211 143.5,101.5C 143.5,103.167 143.5,104.833 143.5,106.5C 145.308,106.491 146.975,106.991 148.5,108C 153.7,112.865 158.533,118.032 163,123.5C 164.289,126.351 164.789,129.351 164.5,132.5C 161.91,133.252 159.41,134.252 157,135.5C 155.061,135.046 153.228,134.379 151.5,133.5C 148.079,129.074 144.079,125.407 139.5,122.5C 137.861,121.527 136.527,120.194 135.5,118.5C 131.227,112.558 126.227,107.224 120.5,102.5C 120.083,101.876 119.416,101.543 118.5,101.5C 116.964,102.249 115.631,103.249 114.5,104.5C 113.914,104.291 113.414,103.957 113,103.5C 113.493,99.4841 114.326,95.4841 115.5,91.5C 116.833,90.5 118.167,89.5 119.5,88.5 Z"/></g>
<g><path style="opacity:0.549" fill="#152973" d="M 79.5,105.5 C 81.8333,107.167 83.8333,109.167 85.5,111.5C 82.5,110.5 80.5,108.5 79.5,105.5 Z"/></g>
<g><path style="opacity:1" fill="#209ee8" d="M 109.5,101.5 C 111.263,104.02 113.263,106.353 115.5,108.5C 115.481,110.06 115.148,111.56 114.5,113C 116.085,114.925 117.252,117.091 118,119.5C 120.666,120.893 123.166,122.559 125.5,124.5C 126.891,123.355 128.224,123.355 129.5,124.5C 129.291,125.086 128.957,125.586 128.5,126C 135.101,128.352 136.768,132.519 133.5,138.5C 128.154,139.021 123.154,138.021 118.5,135.5C 116.369,131.03 113.036,128.03 108.5,126.5C 105.833,121.833 102.167,118.167 97.5,115.5C 96.5,114.167 95.5,112.833 94.5,111.5C 95.0577,110.21 96.0577,109.377 97.5,109C 94.1393,108.472 91.8059,106.639 90.5,103.5C 89.3112,102.571 87.9778,102.238 86.5,102.5C 86.7035,100.61 86.0368,99.1096 84.5,98C 85.4558,94.6064 85.7892,91.1064 85.5,87.5C 86.8333,87.5 88.1667,87.5 89.5,87.5C 89.1485,90.0728 89.6485,92.4062 91,94.5C 91.3071,91.1238 93.1405,89.7904 96.5,90.5C 96.5,91.5 96.5,92.5 96.5,93.5C 95.5,93.5 94.5,93.5 93.5,93.5C 93.8832,98.2136 96.2165,99.5469 100.5,97.5C 103.507,98.8889 106.507,100.222 109.5,101.5 Z"/></g>
<g><path style="opacity:0.259" fill="#4c4c4c" d="M 296.5,105.5 C 297.833,105.5 299.167,105.5 300.5,105.5C 300.5,107.167 300.5,108.833 300.5,110.5C 299.87,108.293 298.536,106.626 296.5,105.5 Z"/></g>
<g><path style="opacity:0.114" fill="#555555" d="M 465.5,91.5 C 464.872,107.74 465.539,123.74 467.5,139.5C 466.5,139.5 465.5,139.5 464.5,139.5C 464.17,123.325 464.504,107.325 465.5,91.5 Z"/></g>
<g><path style="opacity:0.392" fill="#717171" d="M 273.5,105.5 C 273.573,107.027 272.906,108.027 271.5,108.5C 271.427,106.973 272.094,105.973 273.5,105.5 Z"/></g>
<g><path style="opacity:0.016" fill="#151515" d="M 326.5,106.5 C 327.5,106.5 328.5,106.5 329.5,106.5C 329.5,107.5 329.5,108.5 329.5,109.5C 328.5,108.5 327.5,107.5 326.5,106.5 Z"/></g>
<g><path style="opacity:0.898" fill="#919191" d="M 347.5,106.5 C 346.5,108.167 345.167,109.5 343.5,110.5C 343.586,109.504 343.252,108.671 342.5,108C 344.154,107.392 345.821,106.892 347.5,106.5 Z"/></g>
<g><path style="opacity:0.29" fill="#5d5d5d" d="M 356.5,106.5 C 358.144,106.81 359.144,107.81 359.5,109.5C 357.856,109.19 356.856,108.19 356.5,106.5 Z"/></g>
<g><path style="opacity:0.504" fill="#929292" d="M 423.5,90.5 C 422.238,106.641 422.238,122.975 423.5,139.5C 422.169,131.695 421.502,123.528 421.5,115C 421.502,106.472 422.169,98.3049 423.5,90.5 Z"/></g>
<g><path style="opacity:0.922" fill="#868686" d="M 218.5,106.5 C 218.759,108.989 217.759,110.656 215.5,111.5C 216.11,109.566 217.11,107.899 218.5,106.5 Z"/></g>
<g><path style="opacity:0.102" fill="#404040" d="M 284.5,109.5 C 284.34,111.153 283.674,112.486 282.5,113.5C 282.229,111.62 282.896,110.287 284.5,109.5 Z"/></g>
<g><path style="opacity:0.626" fill="#acacac" d="M 311.5,99.5 C 312.289,99.7828 312.956,100.283 313.5,101C 312.624,113.243 312.29,125.743 312.5,138.5C 311.505,125.677 311.171,112.677 311.5,99.5 Z"/></g>
<g><path style="opacity:0.537" fill="#132c76" d="M 85.5,111.5 C 89.1667,114.5 92.5,117.833 95.5,121.5C 91.1667,119.167 87.8333,115.833 85.5,111.5 Z"/></g>
<g><path style="opacity:0.42" fill="#8f8f8f" d="M 212.5,113.5 C 212.389,114.117 212.056,114.617 211.5,115C 206.648,115.815 201.981,115.648 197.5,114.5C 202.547,114.663 207.547,114.329 212.5,113.5 Z"/></g>
<g><path style="opacity:1" fill="#298ec9" d="M 115.5,108.5 C 116.167,108.833 116.833,109.167 117.5,109.5C 123.771,115.27 129.938,121.27 136,127.5C 139.344,135.479 136.844,140.479 128.5,142.5C 124.089,141.634 120.756,139.301 118.5,135.5C 123.154,138.021 128.154,139.021 133.5,138.5C 136.768,132.519 135.101,128.352 128.5,126C 128.957,125.586 129.291,125.086 129.5,124.5C 128.224,123.355 126.891,123.355 125.5,124.5C 123.166,122.559 120.666,120.893 118,119.5C 117.252,117.091 116.085,114.925 114.5,113C 115.148,111.56 115.481,110.06 115.5,108.5 Z"/></g>
<g><path style="opacity:0.641" fill="#949494" d="M 408.5,90.5 C 409.831,97.9703 410.498,105.804 410.5,114C 410.5,122.007 410.166,129.841 409.5,137.5C 409.777,121.43 409.444,105.763 408.5,90.5 Z"/></g>
<g><path style="opacity:0.361" fill="#7b7b7b" d="M 329.5,106.5 C 330.659,117.326 330.826,128.326 330,139.5C 328.301,140.406 326.467,140.739 324.5,140.5C 325.878,139.766 327.378,139.099 329,138.5C 329.5,128.839 329.666,119.172 329.5,109.5C 329.5,108.5 329.5,107.5 329.5,106.5 Z"/></g>
<g><path style="opacity:0.599" fill="#8d8d8d" d="M 371.5,108.5 C 372.529,110.948 373.196,113.614 373.5,116.5C 372.546,123.847 372.212,131.013 372.5,138C 374.175,138.985 375.842,139.819 377.5,140.5C 375.533,140.739 373.699,140.406 372,139.5C 371.5,129.172 371.334,118.839 371.5,108.5 Z"/></g>
<g><path style="opacity:0.709" fill="#b7b7b7" d="M 451.5,91.5 C 452.831,98.9703 453.498,106.804 453.5,115C 453.498,123.196 452.831,131.03 451.5,138.5C 452.804,122.791 452.804,107.124 451.5,91.5 Z"/></g>
<g><path style="opacity:1" fill="#153d94" d="M 97.5,115.5 C 102.167,118.167 105.833,121.833 108.5,126.5C 107.504,126.414 106.671,126.748 106,127.5C 105.246,130.684 103.746,133.351 101.5,135.5C 102.657,131.207 103.657,126.873 104.5,122.5C 102.027,122.799 99.8603,123.799 98,125.5C 96.4053,124.644 95.572,123.311 95.5,121.5C 97.5906,122.803 99.2572,122.303 100.5,120C 99.6854,118.357 98.6854,116.857 97.5,115.5 Z"/></g>
<g><path style="opacity:1" fill="#1554e6" d="M 55.5,90.5 C 57.5273,90.3379 59.5273,90.5045 61.5,91C 64.0594,92.7774 66.7261,94.2774 69.5,95.5C 71.8333,99.8333 75.1667,103.167 79.5,105.5C 80.5,108.5 82.5,110.5 85.5,111.5C 87.8333,115.833 91.1667,119.167 95.5,121.5C 95.572,123.311 96.4053,124.644 98,125.5C 99.8603,123.799 102.027,122.799 104.5,122.5C 103.657,126.873 102.657,131.207 101.5,135.5C 98.8639,138.651 95.5305,139.818 91.5,139C 87.3462,136.34 83.3462,133.507 79.5,130.5C 73.4737,124.805 67.4737,119.139 61.5,113.5C 58.9461,109.048 56.1127,104.714 53,100.5C 52.0239,96.673 52.8572,93.3396 55.5,90.5 Z"/></g>
<g><path style="opacity:0.059" fill="#112c76" d="M 139.5,122.5 C 144.079,125.407 148.079,129.074 151.5,133.5C 146.895,130.564 142.895,126.898 139.5,122.5 Z"/></g>
<g><path style="opacity:0.808" fill="#29648e" d="M 108.5,126.5 C 113.036,128.03 116.369,131.03 118.5,135.5C 115.141,132.471 111.808,129.471 108.5,126.5 Z"/></g>
<g><path style="opacity:0.565" fill="#8a8a8a" d="M 203.5,124.5 C 201.735,125.461 199.735,125.795 197.5,125.5C 197.5,129.833 197.5,134.167 197.5,138.5C 198.791,138.263 199.791,138.596 200.5,139.5C 199.167,139.5 197.833,139.5 196.5,139.5C 196.5,134.5 196.5,129.5 196.5,124.5C 198.833,124.5 201.167,124.5 203.5,124.5 Z"/></g>
<g><path style="opacity:0.773" fill="#1b3c94" d="M 143.5,101.5 C 149.83,107.662 156.33,113.662 163,119.5C 169.627,126.474 168.794,132.307 160.5,137C 156.59,138.041 153.59,136.875 151.5,133.5C 153.228,134.379 155.061,135.046 157,135.5C 159.41,134.252 161.91,133.252 164.5,132.5C 164.789,129.351 164.289,126.351 163,123.5C 158.533,118.032 153.7,112.865 148.5,108C 146.975,106.991 145.308,106.491 143.5,106.5C 143.5,104.833 143.5,103.167 143.5,101.5 Z"/></g>
<g><path style="opacity:0.725" fill="#17388b" d="M 79.5,130.5 C 83.3462,133.507 87.3462,136.34 91.5,139C 95.5305,139.818 98.8639,138.651 101.5,135.5C 98.2206,141.642 93.554,142.809 87.5,139C 84.6286,136.297 81.9619,133.464 79.5,130.5 Z"/></g>
<g><path style="opacity:0.327" fill="#767676" d="M 342.5,113.5 C 342.334,121.84 342.5,130.173 343,138.5C 344.622,139.099 346.122,139.766 347.5,140.5C 345.5,140.5 343.5,140.5 341.5,140.5C 341.173,131.318 341.507,122.318 342.5,113.5 Z"/></g>
<g><path style="opacity:0.306" fill="#484848" d="M 299.5,135.5 C 299.167,137.833 297.833,139.167 295.5,139.5C 296.5,137.833 297.833,136.5 299.5,135.5 Z"/></g>
<g><path style="opacity:0.647" fill="#7b7b7b" d="M 360.5,137.5 C 360.586,138.496 360.252,139.329 359.5,140C 357.866,140.494 356.199,140.66 354.5,140.5C 356.588,139.799 358.588,138.799 360.5,137.5 Z"/></g>
<g><path style="opacity:0.694" fill="#8e8e8e" d="M 409.5,137.5 C 408.393,139.969 406.393,140.969 403.5,140.5C 405.426,139.514 407.426,138.514 409.5,137.5 Z"/></g>
<g><path style="opacity:0.374" fill="#858585" d="M 182.5,139.5 C 181.791,140.404 180.791,140.737 179.5,140.5C 179.5,142.833 179.5,145.167 179.5,147.5C 188.5,147.5 197.5,147.5 206.5,147.5C 197.348,148.494 188.015,148.827 178.5,148.5C 178.5,145.5 178.5,142.5 178.5,139.5C 179.833,139.5 181.167,139.5 182.5,139.5 Z"/></g>
<g><path style="opacity:0.408" fill="#8e8e8e" d="M 255.5,138.5 C 257.379,139.341 259.379,139.675 261.5,139.5C 261.5,142.5 261.5,145.5 261.5,148.5C 253.316,148.826 245.316,148.492 237.5,147.5C 245.167,147.5 252.833,147.5 260.5,147.5C 260.5,145.167 260.5,142.833 260.5,140.5C 258.219,140.923 256.552,140.256 255.5,138.5 Z"/></g>
<g><path style="opacity:0.396" fill="#7d7d7d" d="M 312.5,138.5 C 314.379,139.341 316.379,139.675 318.5,139.5C 318.5,142.5 318.5,145.5 318.5,148.5C 312.833,148.5 307.167,148.5 301.5,148.5C 301.784,146.585 301.451,144.919 300.5,143.5C 300.56,142.957 300.893,142.624 301.5,142.5C 302.452,144.045 302.785,145.712 302.5,147.5C 307.5,147.5 312.5,147.5 317.5,147.5C 317.5,145.167 317.5,142.833 317.5,140.5C 315.219,140.923 313.552,140.256 312.5,138.5 Z"/></g>
<g><path style="opacity:0.384" fill="#838383" d="M 324.5,140.5 C 324.5,142.833 324.5,145.167 324.5,147.5C 332.167,147.5 339.833,147.5 347.5,147.5C 339.684,148.492 331.684,148.826 323.5,148.5C 323.194,145.615 323.527,142.948 324.5,140.5 Z"/></g>
<g><path style="opacity:0.376" fill="#7a7a7a" d="M 377.5,140.5 C 378.473,142.948 378.806,145.615 378.5,148.5C 370.316,148.826 362.316,148.492 354.5,147.5C 362.167,147.5 369.833,147.5 377.5,147.5C 377.5,145.167 377.5,142.833 377.5,140.5 Z"/></g>
</svg>
