<?xml version="1.0" encoding="UTF-8"?>
<!DOCTYPE svg PUBLIC "-//W3C//DTD SVG 1.1//EN" "http://www.w3.org/Graphics/SVG/1.1/DTD/svg11.dtd">
<svg xmlns="http://www.w3.org/2000/svg" version="1.1" width="506px" height="186px" style="shape-rendering:geometricPrecision; text-rendering:geometricPrecision; image-rendering:optimizeQuality; fill-rule:evenodd; clip-rule:evenodd" xmlns:xlink="http://www.w3.org/1999/xlink">
<g><path style="opacity:0.496" fill="#919191" d="M 233.5,46.5 C 233.5,46.8333 233.5,47.1667 233.5,47.5C 227.5,47.5 221.5,47.5 215.5,47.5C 215.811,46.5222 216.478,45.8555 217.5,45.5C 223.021,46.4037 228.354,46.737 233.5,46.5 Z"/></g>
<g><path style="opacity:0.999" fill="#030303" d="M 215.5,47.5 C 221.5,47.5 227.5,47.5 233.5,47.5C 233.5,68.1667 233.5,88.8333 233.5,109.5C 234.919,110.451 236.585,110.784 238.5,110.5C 238.5,112.833 238.5,115.167 238.5,117.5C 230.833,117.5 223.167,117.5 215.5,117.5C 215.5,114.833 215.5,112.167 215.5,109.5C 216.833,109.5 218.167,109.5 219.5,109.5C 220.492,109.672 221.158,109.338 221.5,108.5C 222.662,91.3382 222.829,74.0049 222,56.5C 221.329,55.7476 220.496,55.4142 219.5,55.5C 218.167,55.5 216.833,55.5 215.5,55.5C 215.5,52.8333 215.5,50.1667 215.5,47.5 Z"/></g>
<g><path style="opacity:0.759" fill="#737373" d="M 194.5,52.5 C 182.167,52.5 169.833,52.5 157.5,52.5C 157.5,55.1667 157.5,57.8333 157.5,60.5C 156.362,57.6965 156.195,54.6965 157,51.5C 157.414,51.0426 157.914,50.7093 158.5,50.5C 168.137,51.7525 177.803,51.7525 187.5,50.5C 190.155,50.4404 192.489,51.1071 194.5,52.5 Z"/></g>
<g><path style="opacity:0.718" fill="#989898" d="M 415.5,51.5 C 415.5,51.8333 415.5,52.1667 415.5,52.5C 413.219,52.0773 411.552,52.744 410.5,54.5C 409.209,53.4583 409.209,52.2917 410.5,51C 412.387,50.2204 414.054,50.3871 415.5,51.5 Z"/></g>
<g><path style="opacity:0.765" fill="#6b6b6b" d="M 462.5,68.5 C 462.5,63.1667 462.5,57.8333 462.5,52.5C 446.833,52.5 431.167,52.5 415.5,52.5C 415.5,52.1667 415.5,51.8333 415.5,51.5C 431.193,51.549 446.86,51.3823 462.5,51C 463.825,56.9323 463.825,62.7657 462.5,68.5 Z"/></g>
<g><path style="opacity:0.999" fill="#0d0d0d" d="M 194.5,52.5 C 196.649,53.7362 198.982,54.7362 201.5,55.5C 201.833,55.5 202.167,55.5 202.5,55.5C 203.08,57.7488 204.413,59.4154 206.5,60.5C 206.427,62.0269 207.094,63.0269 208.5,63.5C 210.032,67.1242 210.365,70.7909 209.5,74.5C 208.511,77.7263 207.511,81.0596 206.5,84.5C 205.094,84.9731 204.427,85.9731 204.5,87.5C 204.5,88.1667 204.167,88.5 203.5,88.5C 201.596,88.7376 200.262,89.7376 199.5,91.5C 197.214,91.595 195.214,92.2616 193.5,93.5C 187.762,95.2284 181.762,95.8951 175.5,95.5C 175.5,99.8333 175.5,104.167 175.5,108.5C 178.713,108.19 181.713,108.523 184.5,109.5C 184.5,112.167 184.5,114.833 184.5,117.5C 175.5,117.5 166.5,117.5 157.5,117.5C 157.132,114.467 157.798,111.8 159.5,109.5C 160.822,109.67 161.989,109.337 163,108.5C 163.167,100.5 163.333,92.5 163.5,84.5C 163.498,76.1376 162.831,68.1376 161.5,60.5C 159.965,61.3543 158.632,61.3543 157.5,60.5C 157.5,57.8333 157.5,55.1667 157.5,52.5C 169.833,52.5 182.167,52.5 194.5,52.5 Z M 192.5,63.5 C 192.5,64.8333 193.167,65.5 194.5,65.5C 194.328,66.4916 194.662,67.1583 195.5,67.5C 198.014,76.1804 195.014,81.6804 186.5,84C 182.848,84.4986 179.182,84.6653 175.5,84.5C 175.5,76.8333 175.5,69.1667 175.5,61.5C 181.262,61.4365 186.929,62.1032 192.5,63.5 Z"/></g>
<g><path style="opacity:1" fill="#040404" d="M 405.5,52.5 C 405.5,54.8333 405.5,57.1667 405.5,59.5C 403.234,59.1412 401.401,59.8078 400,61.5C 399.5,77.4965 399.333,93.4965 399.5,109.5C 401.5,109.5 403.5,109.5 405.5,109.5C 405.5,112.167 405.5,114.833 405.5,117.5C 397.414,117.801 389.414,117.467 381.5,116.5C 381.5,113.833 381.5,111.167 381.5,108.5C 383.167,108.5 384.833,108.5 386.5,108.5C 387.117,108.389 387.617,108.056 388,107.5C 388.667,91.8333 388.667,76.1667 388,60.5C 386.301,59.5939 384.467,59.2606 382.5,59.5C 382.5,57.1667 382.5,54.8333 382.5,52.5C 390.167,52.5 397.833,52.5 405.5,52.5 Z"/></g>
<g><path style="opacity:0.999" fill="#030303" d="M 415.5,52.5 C 431.167,52.5 446.833,52.5 462.5,52.5C 462.5,57.8333 462.5,63.1667 462.5,68.5C 459.167,68.5 455.833,68.5 452.5,68.5C 452.5,66.1667 452.5,63.8333 452.5,61.5C 451.5,61.5 450.5,61.5 449.5,61.5C 447.833,61.5 446.167,61.5 444.5,61.5C 442.515,77.1317 441.849,93.1317 442.5,109.5C 445.167,109.5 447.833,109.5 450.5,109.5C 450.5,112.167 450.5,114.833 450.5,117.5C 441.167,117.5 431.833,117.5 422.5,117.5C 422.046,115.741 422.046,113.741 422.5,111.5C 424.292,110.691 426.292,110.191 428.5,110C 429.756,109.583 430.423,108.75 430.5,107.5C 431.166,100.007 431.5,92.3408 431.5,84.5C 431.498,76.4697 430.831,68.803 429.5,61.5C 427.703,61.9349 425.703,61.9349 423.5,61.5C 422.5,61.5 421.5,61.5 420.5,61.5C 420.5,63.8333 420.5,66.1667 420.5,68.5C 417.167,68.5 413.833,68.5 410.5,68.5C 410.277,64.0567 410.277,59.3901 410.5,54.5C 411.552,52.744 413.219,52.0773 415.5,52.5 Z"/></g>
<g><path style="opacity:0.337" fill="#b0b0b0" d="M 194.5,52.5 C 197.491,52.1663 199.824,53.1663 201.5,55.5C 198.982,54.7362 196.649,53.7362 194.5,52.5 Z"/></g>
<g><path style="opacity:0.092" fill="#e7e7e7" d="M 233.5,46.5 C 234.177,67.4021 234.844,88.4021 235.5,109.5C 234.833,109.5 234.167,109.5 233.5,109.5C 233.5,88.8333 233.5,68.1667 233.5,47.5C 233.5,47.1667 233.5,46.8333 233.5,46.5 Z"/></g>
<g><path style="opacity:0.357" fill="#9fbbe8" d="M 99.5,55.5 C 100.946,54.3871 102.613,54.2204 104.5,55C 106.5,56.3333 108.5,57.6667 110.5,59C 111.252,59.6708 111.586,60.5041 111.5,61.5C 108.732,59.9128 106.065,58.0795 103.5,56C 102.207,55.51 100.873,55.3433 99.5,55.5 Z"/></g>
<g><path style="opacity:0.518" fill="#a0a0a0" d="M 202.5,55.5 C 204.587,56.5846 205.92,58.2512 206.5,60.5C 204.413,59.4154 203.08,57.7488 202.5,55.5 Z"/></g>
<g><path style="opacity:0.843" fill="#9ab0e3" d="M 39.5,59.5 C 36.6348,59.9652 33.9681,60.9652 31.5,62.5C 33.2162,58.7642 35.8829,57.7642 39.5,59.5 Z"/></g>
<g><path style="opacity:0.018" fill="#d3d3d3" d="M 206.5,60.5 C 207.906,60.9731 208.573,61.9731 208.5,63.5C 207.094,63.0269 206.427,62.0269 206.5,60.5 Z"/></g>
<g><path style="opacity:0.777" fill="#424242" d="M 219.5,55.5 C 220.496,55.4142 221.329,55.7476 222,56.5C 222.829,74.0049 222.662,91.3382 221.5,108.5C 221.5,106.833 221.5,105.167 221.5,103.5C 221.447,88.3803 221.447,73.3803 221.5,58.5C 220.807,57.4822 220.141,56.4822 219.5,55.5 Z"/></g>
<g><path style="opacity:0.388" fill="#a3baee" d="M 39.5,59.5 C 42.1979,59.8449 44.1979,61.1782 45.5,63.5C 42.8021,63.1551 40.8021,61.8218 39.5,59.5 Z"/></g>
<g><path style="opacity:0.729" fill="#6d8dd7" d="M 95.5,58.5 C 95.2639,61.6207 93.9305,63.954 91.5,65.5C 92.0787,62.6689 93.412,60.3356 95.5,58.5 Z"/></g>
<g><path style="opacity:1" fill="#1955da" d="M 39.5,59.5 C 40.8021,61.8218 42.8021,63.1551 45.5,63.5C 47.1667,67.1667 49.8333,69.8333 53.5,71.5C 54.203,73.8726 55.5363,75.8726 57.5,77.5C 55.9826,77.4894 54.8159,76.8228 54,75.5C 54.0773,76.7376 53.9106,77.7376 53.5,78.5C 52.1268,76.5101 51.1268,74.3434 50.5,72C 46.8664,72.3807 43.533,71.214 40.5,68.5C 39.5481,66.9547 39.2148,65.288 39.5,63.5C 36.6348,63.9652 33.9681,64.9652 31.5,66.5C 31.5,65.1667 31.5,63.8333 31.5,62.5C 33.9681,60.9652 36.6348,59.9652 39.5,59.5 Z"/></g>
<g><path style="opacity:0.459" fill="#86c4e0" d="M 73.5,57.5 C 62.0043,53.9991 57.671,57.9991 60.5,69.5C 55.8239,61.7252 57.9905,56.3918 67,53.5C 69.6171,54.2193 71.7838,55.5526 73.5,57.5 Z"/></g>
<g><path style="opacity:0.655" fill="#6d6d6d" d="M 399.5,51.5 C 401.735,51.2053 403.735,51.5386 405.5,52.5C 397.833,52.5 390.167,52.5 382.5,52.5C 382.5,54.8333 382.5,57.1667 382.5,59.5C 384.467,59.2606 386.301,59.5939 388,60.5C 388.667,76.1667 388.667,91.8333 388,107.5C 387.617,108.056 387.117,108.389 386.5,108.5C 387.374,93.0275 387.541,77.3608 387,61.5C 385.333,61.1667 383.667,60.8333 382,60.5C 381.333,57.5 381.333,54.5 382,51.5C 387.622,51.4111 393.456,51.4111 399.5,51.5 Z"/></g>
<g><path style="opacity:0.568" fill="#808080" d="M 399.5,51.5 C 402.475,49.9392 405.142,50.4392 407.5,53C 406.761,54.7646 406.761,56.7646 407.5,59C 405.212,59.9464 403.045,61.1131 401,62.5C 400.534,77.872 400.368,93.0386 400.5,108C 402.382,108.198 404.048,108.698 405.5,109.5C 403.5,109.5 401.5,109.5 399.5,109.5C 399.333,93.4965 399.5,77.4965 400,61.5C 401.401,59.8078 403.234,59.1412 405.5,59.5C 405.5,57.1667 405.5,54.8333 405.5,52.5C 403.735,51.5386 401.735,51.2053 399.5,51.5 Z"/></g>
<g><path style="opacity:0.752" fill="#454545" d="M 429.5,61.5 C 430.831,68.803 431.498,76.4697 431.5,84.5C 431.5,92.3408 431.166,100.007 430.5,107.5C 430.5,107.167 430.5,106.833 430.5,106.5C 430.801,91.4518 430.468,76.4518 429.5,61.5 Z"/></g>
<g><path style="opacity:0.326" fill="#b0b0b0" d="M 444.5,61.5 C 443.516,77.089 443.183,92.7556 443.5,108.5C 446.059,108.198 448.393,108.532 450.5,109.5C 447.833,109.5 445.167,109.5 442.5,109.5C 441.849,93.1317 442.515,77.1317 444.5,61.5 Z"/></g>
<g><path style="opacity:0.502" fill="#89a7e2" d="M 45.5,63.5 C 48.5,65.8333 51.1667,68.5 53.5,71.5C 49.8333,69.8333 47.1667,67.1667 45.5,63.5 Z"/></g>
<g><path style="opacity:0.263" fill="#c5d5f4" d="M 114.5,63.5 C 116.914,64.9108 118.581,66.9108 119.5,69.5C 117.086,68.0892 115.419,66.0892 114.5,63.5 Z"/></g>
<g><path style="opacity:0.024" fill="#d8d8d8" d="M 192.5,63.5 C 193.5,63.8333 194.167,64.5 194.5,65.5C 193.167,65.5 192.5,64.8333 192.5,63.5 Z"/></g>
<g><path style="opacity:0.776" fill="#6786ca" d="M 31.5,62.5 C 31.5,63.8333 31.5,65.1667 31.5,66.5C 29.7868,67.6354 29.1201,69.302 29.5,71.5C 27.9095,68.0564 28.5762,65.0564 31.5,62.5 Z"/></g>
<g><path style="opacity:0.502" fill="#bababa" d="M 270.5,66.5 C 266.864,67.3255 263.197,67.9922 259.5,68.5C 263.016,66.3634 266.683,65.6968 270.5,66.5 Z"/></g>
<g><path style="opacity:1" fill="#0b0b0b" d="M 270.5,66.5 C 270.833,66.5 271.167,66.5 271.5,66.5C 276.47,67.3529 281.47,68.0195 286.5,68.5C 287.791,68.2627 288.791,68.596 289.5,69.5C 289.333,82.8375 289.5,96.1708 290,109.5C 291.699,110.406 293.533,110.739 295.5,110.5C 295.5,112.833 295.5,115.167 295.5,117.5C 290.5,117.5 285.5,117.5 280.5,117.5C 280.785,115.712 280.452,114.045 279.5,112.5C 278.081,113.005 277.415,114.005 277.5,115.5C 275.819,117.008 273.819,118.008 271.5,118.5C 266.463,118.587 261.463,118.254 256.5,117.5C 256.027,116.094 255.027,115.427 253.5,115.5C 252.598,113.659 251.264,112.326 249.5,111.5C 248.463,110.07 247.796,108.403 247.5,106.5C 247.737,105.209 247.404,104.209 246.5,103.5C 246.5,103.167 246.5,102.833 246.5,102.5C 246.5,97.5 246.5,92.5 246.5,87.5C 247.924,85.4855 248.59,83.1522 248.5,80.5C 248.5,80.1667 248.5,79.8333 248.5,79.5C 249.906,79.0269 250.573,78.0269 250.5,76.5C 252.5,75.1667 254.167,73.5 255.5,71.5C 257.23,70.9744 258.564,69.9744 259.5,68.5C 263.197,67.9922 266.864,67.3255 270.5,66.5 Z M 269.5,75.5 C 272.127,76.0916 274.794,76.4249 277.5,76.5C 277.185,80.3714 277.518,84.0381 278.5,87.5C 278.5,92.8333 278.5,98.1667 278.5,103.5C 276.5,106.167 274.167,108.5 271.5,110.5C 269.833,110.5 268.167,110.5 266.5,110.5C 264.525,108.863 262.525,107.196 260.5,105.5C 260.5,105.167 260.5,104.833 260.5,104.5C 260.279,101.933 259.612,99.5994 258.5,97.5C 258.942,93.8455 259.276,90.1788 259.5,86.5C 260.537,85.0697 261.204,83.403 261.5,81.5C 262.401,80.7095 263.068,79.7095 263.5,78.5C 265.574,77.4861 267.574,76.4861 269.5,75.5 Z"/></g>
<g><path style="opacity:0.467" fill="#ababab" d="M 271.5,66.5 C 276.629,65.5872 281.629,66.2539 286.5,68.5C 281.47,68.0195 276.47,67.3529 271.5,66.5 Z"/></g>
<g><path style="opacity:0.745" fill="#919191" d="M 332.5,66.5 C 331.081,67.4511 329.415,67.7845 327.5,67.5C 328.641,66.661 329.974,65.9943 331.5,65.5C 332.107,65.6236 332.44,65.9569 332.5,66.5 Z"/></g>
<g><path style="opacity:0.999" fill="#070707" d="M 343.5,68.5 C 348.261,73.1138 350.261,78.7804 349.5,85.5C 349.334,93.5069 349.5,101.507 350,109.5C 351.699,110.406 353.533,110.739 355.5,110.5C 355.5,112.833 355.5,115.167 355.5,117.5C 347.833,117.5 340.167,117.5 332.5,117.5C 332.5,115.167 332.5,112.833 332.5,110.5C 334.781,110.923 336.448,110.256 337.5,108.5C 338.166,103.845 338.499,99.0119 338.5,94C 338.494,88.7843 337.827,83.951 336.5,79.5C 336.167,78.8333 335.833,78.1667 335.5,77.5C 335.389,76.8826 335.056,76.3826 334.5,76C 331.5,75.3333 328.5,75.3333 325.5,76C 324.944,76.3826 324.611,76.8826 324.5,77.5C 323.136,79.1911 321.803,80.8577 320.5,82.5C 319.343,91.3238 319.176,100.324 320,109.5C 321.699,110.406 323.533,110.739 325.5,110.5C 325.5,112.833 325.5,115.167 325.5,117.5C 317.833,117.5 310.167,117.5 302.5,117.5C 302.5,115.167 302.5,112.833 302.5,110.5C 304.722,110.822 306.556,110.155 308,108.5C 308.667,98.1667 308.667,87.8333 308,77.5C 306.989,76.6634 305.822,76.33 304.5,76.5C 304.167,76.5 303.833,76.5 303.5,76.5C 301.798,74.1998 301.132,71.5331 301.5,68.5C 306.833,68.5 312.167,68.5 317.5,68.5C 317.181,70.7505 317.681,72.7505 319,74.5C 319.464,73.9056 319.631,73.2389 319.5,72.5C 320.262,70.7376 321.596,69.7376 323.5,69.5C 325.153,69.3404 326.486,68.6737 327.5,67.5C 329.415,67.7845 331.081,67.4511 332.5,66.5C 336.583,65.0881 340.25,65.7547 343.5,68.5 Z"/></g>
<g><path style="opacity:0.764" fill="#6b6b6b" d="M 319.5,72.5 C 319.631,73.2389 319.464,73.9056 319,74.5C 317.681,72.7505 317.181,70.7505 317.5,68.5C 312.167,68.5 306.833,68.5 301.5,68.5C 306.984,67.4825 312.651,66.8158 318.5,66.5C 318.205,68.7354 318.539,70.7354 319.5,72.5 Z"/></g>
<g><path style="opacity:0.714" fill="#787878" d="M 327.5,67.5 C 326.486,68.6737 325.153,69.3404 323.5,69.5C 324.287,67.8958 325.62,67.2291 327.5,67.5 Z"/></g>
<g><path style="opacity:0.616" fill="#979797" d="M 423.5,61.5 C 421.921,64.5916 420.755,67.925 420,71.5C 416.981,69.9426 413.814,68.9426 410.5,68.5C 413.833,68.5 417.167,68.5 420.5,68.5C 420.5,66.1667 420.5,63.8333 420.5,61.5C 421.5,61.5 422.5,61.5 423.5,61.5 Z"/></g>
<g><path style="opacity:0.475" fill="#a8a8a8" d="M 449.5,61.5 C 450.5,61.5 451.5,61.5 452.5,61.5C 452.5,63.8333 452.5,66.1667 452.5,68.5C 455.833,68.5 459.167,68.5 462.5,68.5C 459.296,69.4852 455.963,69.9852 452.5,70C 452.004,66.9143 451.004,64.0809 449.5,61.5 Z"/></g>
<g><path style="opacity:0.027" fill="#bfd3f5" d="M 119.5,69.5 C 123.167,71.1667 125.833,73.8333 127.5,77.5C 125.833,76.1667 124.167,74.8333 122.5,73.5C 121.5,72.1667 120.5,70.8333 119.5,69.5 Z"/></g>
<g><path style="opacity:0.259" fill="#b9b9b9" d="M 259.5,68.5 C 258.564,69.9744 257.23,70.9744 255.5,71.5C 256.035,69.5544 257.368,68.5544 259.5,68.5 Z"/></g>
<g><path style="opacity:0.101" fill="#cecece" d="M 301.5,68.5 C 301.132,71.5331 301.798,74.1998 303.5,76.5C 302.603,77.5981 301.77,77.5981 301,76.5C 300.199,73.633 300.366,70.9664 301.5,68.5 Z"/></g>
<g><path style="opacity:1" fill="#34a0e2" d="M 73.5,57.5 C 78.1464,61.8115 82.8131,66.1449 87.5,70.5C 89.0822,68.9853 90.4155,67.3186 91.5,65.5C 91.7406,67.8984 91.0739,69.8984 89.5,71.5C 86.4552,71.4921 83.4552,71.1587 80.5,70.5C 80.1756,73.694 81.3422,74.694 84,73.5C 84.956,74.5786 85.7894,75.7453 86.5,77C 83.3307,77.9782 80.4973,77.4782 78,75.5C 77.187,77.4357 76.687,79.4357 76.5,81.5C 78.1992,81.3398 79.8659,81.5065 81.5,82C 86.3011,85.7939 89.4678,90.6273 91,96.5C 92.3561,97.3802 93.8561,97.7135 95.5,97.5C 95.3379,95.4727 95.5045,93.4727 96,91.5C 96.5,93.3333 97.6667,94.5 99.5,95C 98.6919,95.3076 98.0253,95.8076 97.5,96.5C 99.2255,98.2279 100.559,100.228 101.5,102.5C 98.7024,105.445 99.3691,107.445 103.5,108.5C 104.833,107.833 106.167,107.167 107.5,106.5C 107.911,107.262 108.077,108.262 108,109.5C 109.444,107.845 111.278,107.178 113.5,107.5C 113.919,103.227 113.252,99.2273 111.5,95.5C 112.794,96.2899 113.961,97.2899 115,98.5C 117.319,106.34 114.485,111.007 106.5,112.5C 104.39,111.946 102.39,111.112 100.5,110C 95.8761,105.342 91.2094,100.675 86.5,96C 85.212,95.7613 84.212,96.2613 83.5,97.5C 84.3201,93.7779 82.9868,91.4446 79.5,90.5C 79.8134,87.7531 79.48,85.0865 78.5,82.5C 76.4816,83.8135 75.3149,83.1468 75,80.5C 74.0138,81.1712 72.8471,81.1712 71.5,80.5C 67.5271,77.1938 63.8604,73.5271 60.5,69.5C 57.671,57.9991 62.0043,53.9991 73.5,57.5 Z"/></g>
<g><path style="opacity:0.424" fill="#97b8e9" d="M 96.5,72.5 C 96.8966,71.475 97.5632,71.3083 98.5,72C 101.369,75.0379 104.369,77.8712 107.5,80.5C 114.558,87.5542 121.225,94.8875 127.5,102.5C 117.167,92.5 106.833,82.5 96.5,72.5 Z"/></g>
<g><path style="opacity:1" fill="#1254ea" d="M 122.5,73.5 C 123.17,76.6729 124.336,79.6729 126,82.5C 127.779,79.7236 128.779,80.0569 129,83.5C 131.225,84.9389 133.225,86.6055 135,88.5C 135.595,89.8989 135.428,91.2322 134.5,92.5C 134.977,93.4776 135.643,94.3109 136.5,95C 135.376,95.2492 134.376,95.7492 133.5,96.5C 136.753,96.1242 139.42,97.4575 141.5,100.5C 139.667,102.05 137.501,103.05 135,103.5C 132.81,101.612 130.977,99.4449 129.5,97C 124.321,95.8475 120.154,93.0142 117,88.5C 116.517,87.552 116.351,86.552 116.5,85.5C 117.5,85.5 118.5,85.5 119.5,85.5C 119.703,83.6096 119.037,82.1096 117.5,81C 115.687,81.0464 114.021,80.8797 112.5,80.5C 110.995,83.1306 110.329,82.7973 110.5,79.5C 111.675,79.719 112.675,79.3857 113.5,78.5C 109.738,78.0026 106.405,76.6692 103.5,74.5C 101.704,73.2073 100.037,71.7073 98.5,70C 97.552,69.5172 96.552,69.3505 95.5,69.5C 95.5,70.5 95.5,71.5 95.5,72.5C 90.9999,72.7809 90.1665,71.1142 93,67.5C 94.0414,65.4148 95.5414,63.7481 97.5,62.5C 96.4079,59.2973 97.7412,57.6306 101.5,57.5C 102.167,57.6667 102.833,57.8333 103.5,58C 102.643,58.6891 101.977,59.5224 101.5,60.5C 103.413,61.0512 105.413,61.2179 107.5,61C 108.167,62.6667 108.833,64.3333 109.5,66C 114.23,67.9145 118.563,70.4145 122.5,73.5 Z"/></g>
<g><path style="opacity:1" fill="#1455e5" d="M 57.5,77.5 C 58.6049,78.6005 59.9382,79.2671 61.5,79.5C 61.8333,82.5 63.5,84.1667 66.5,84.5C 67.9331,86.5582 68.5997,88.8915 68.5,91.5C 69.5,91.5 70.5,91.5 71.5,91.5C 73.2459,93.2516 75.2459,94.5849 77.5,95.5C 78.4822,94.8592 79.4822,94.1925 80.5,93.5C 80.8333,94 81.1667,94.5 81.5,95C 80.1193,99.3144 78.4527,103.481 76.5,107.5C 71.9479,108.943 67.6146,108.61 63.5,106.5C 63.1077,104.821 62.6077,103.154 62,101.5C 59.2805,99.7807 57.2805,97.4474 56,94.5C 54.3005,93.5939 52.4672,93.2606 50.5,93.5C 49.5,90.5 47.5,88.5 44.5,87.5C 40.8291,80.7462 35.8291,75.4129 29.5,71.5C 29.1201,69.302 29.7868,67.6354 31.5,66.5C 33.9681,64.9652 36.6348,63.9652 39.5,63.5C 39.2148,65.288 39.5481,66.9547 40.5,68.5C 43.533,71.214 46.8664,72.3807 50.5,72C 51.1268,74.3434 52.1268,76.5101 53.5,78.5C 53.9106,77.7376 54.0773,76.7376 54,75.5C 54.8159,76.8228 55.9826,77.4894 57.5,77.5 Z"/></g>
<g><path style="opacity:1" fill="#295acc" d="M 99.5,55.5 C 100.873,55.3433 102.207,55.51 103.5,56C 106.065,58.0795 108.732,59.9128 111.5,61.5C 112.5,62.1667 113.5,62.8333 114.5,63.5C 115.419,66.0892 117.086,68.0892 119.5,69.5C 120.5,70.8333 121.5,72.1667 122.5,73.5C 118.563,70.4145 114.23,67.9145 109.5,66C 108.833,64.3333 108.167,62.6667 107.5,61C 105.413,61.2179 103.413,61.0512 101.5,60.5C 101.977,59.5224 102.643,58.6891 103.5,58C 102.833,57.8333 102.167,57.6667 101.5,57.5C 97.7412,57.6306 96.4079,59.2973 97.5,62.5C 95.5414,63.7481 94.0414,65.4148 93,67.5C 90.1665,71.1142 90.9999,72.7809 95.5,72.5C 95.5,71.5 95.5,70.5 95.5,69.5C 96.552,69.3505 97.552,69.5172 98.5,70C 100.037,71.7073 101.704,73.2073 103.5,74.5C 105.252,76.2459 106.585,78.2459 107.5,80.5C 104.369,77.8712 101.369,75.0379 98.5,72C 97.5632,71.3083 96.8966,71.475 96.5,72.5C 96.5,73.1667 96.1667,73.5 95.5,73.5C 92.8965,75.9019 90.8965,75.2352 89.5,71.5C 91.0739,69.8984 91.7406,67.8984 91.5,65.5C 93.9305,63.954 95.2639,61.6207 95.5,58.5C 96.2623,56.7376 97.5956,55.7376 99.5,55.5 Z"/></g>
<g><path style="opacity:0.914" fill="#5071c7" d="M 29.5,71.5 C 35.8291,75.4129 40.8291,80.7462 44.5,87.5C 38.7731,82.7756 33.7731,77.4422 29.5,71.5 Z"/></g>
<g><path style="opacity:0.565" fill="#959595" d="M 343.5,68.5 C 346.091,69.2543 347.924,70.921 349,73.5C 350.512,77.5326 351.012,81.5326 350.5,85.5C 350.167,85.5 349.833,85.5 349.5,85.5C 350.261,78.7804 348.261,73.1138 343.5,68.5 Z"/></g>
<g><path style="opacity:0.494" fill="#7e9fdc" d="M 53.5,71.5 C 56.5,73.8333 59.1667,76.5 61.5,79.5C 59.9382,79.2671 58.6049,78.6005 57.5,77.5C 55.5363,75.8726 54.203,73.8726 53.5,71.5 Z"/></g>
<g><path style="opacity:0.494" fill="#a0a0a0" d="M 255.5,71.5 C 254.167,73.5 252.5,75.1667 250.5,76.5C 251.167,73.8333 252.833,72.1667 255.5,71.5 Z"/></g>
<g><path style="opacity:0.757" fill="#646464" d="M 289.5,69.5 C 290.777,70.6936 291.444,72.3603 291.5,74.5C 290.572,85.3274 290.239,95.994 290.5,106.5C 291.421,108.756 293.088,109.756 295.5,109.5C 295.5,109.833 295.5,110.167 295.5,110.5C 293.533,110.739 291.699,110.406 290,109.5C 289.5,96.1708 289.333,82.8375 289.5,69.5 Z"/></g>
<g><path style="opacity:0.107" fill="#bababa" d="M 335.5,77.5 C 331.833,76.1667 328.167,76.1667 324.5,77.5C 324.611,76.8826 324.944,76.3826 325.5,76C 328.5,75.3333 331.5,75.3333 334.5,76C 335.056,76.3826 335.389,76.8826 335.5,77.5 Z"/></g>
<g><path style="opacity:0.373" fill="#b5b5b5" d="M 269.5,75.5 C 267.574,76.4861 265.574,77.4861 263.5,78.5C 264.607,76.0311 266.607,75.0311 269.5,75.5 Z"/></g>
<g><path style="opacity:0.247" fill="#b9b9b9" d="M 250.5,76.5 C 250.573,78.0269 249.906,79.0269 248.5,79.5C 248.427,77.9731 249.094,76.9731 250.5,76.5 Z"/></g>
<g><path style="opacity:0.357" fill="#acc4ed" d="M 127.5,77.5 C 133.521,81.5212 138.521,86.5212 142.5,92.5C 137.119,87.7852 132.119,82.7852 127.5,77.5 Z"/></g>
<g><path style="opacity:0.016" fill="#e1e1e1" d="M 269.5,75.5 C 272.304,74.8885 275.304,74.8885 278.5,75.5C 278.5,79.5 278.5,83.5 278.5,87.5C 277.518,84.0381 277.185,80.3714 277.5,76.5C 274.794,76.4249 272.127,76.0916 269.5,75.5 Z"/></g>
<g><path style="opacity:0.392" fill="#a1a1a1" d="M 209.5,74.5 C 209.611,75.1174 209.944,75.6174 210.5,76C 209.819,79.2419 208.486,82.0752 206.5,84.5C 207.511,81.0596 208.511,77.7263 209.5,74.5 Z"/></g>
<g><path style="opacity:0.557" fill="#7899d7" d="M 61.5,79.5 C 63.5,80.8333 65.1667,82.5 66.5,84.5C 63.5,84.1667 61.8333,82.5 61.5,79.5 Z"/></g>
<g><path style="opacity:1" fill="#69b1db" d="M 71.5,80.5 C 72.8471,81.1712 74.0138,81.1712 75,80.5C 75.3149,83.1468 76.4816,83.8135 78.5,82.5C 79.48,85.0865 79.8134,87.7531 79.5,90.5C 79.573,92.0269 78.9063,93.0269 77.5,93.5C 78.3235,91.5454 78.4901,89.5454 78,87.5C 74.9487,85.9501 72.782,83.6168 71.5,80.5 Z"/></g>
<g><path style="opacity:0.369" fill="#bababa" d="M 261.5,81.5 C 261.204,83.403 260.537,85.0697 259.5,86.5C 259.12,84.302 259.787,82.6354 261.5,81.5 Z"/></g>
<g><path style="opacity:0.45" fill="#868686" d="M 195.5,67.5 C 198.173,72.3679 197.84,77.2013 194.5,82C 188.415,85.4198 182.082,86.2532 175.5,84.5C 179.182,84.6653 182.848,84.4986 186.5,84C 195.014,81.6804 198.014,76.1804 195.5,67.5 Z"/></g>
<g><path style="opacity:1" fill="#58aede" d="M 94.5,76.5 C 99.796,83.1313 105.463,89.4646 111.5,95.5C 106.981,91.7098 101.981,88.7098 96.5,86.5C 96.5145,83.3732 95.5145,80.7065 93.5,78.5C 93.5427,77.5836 93.8761,76.9169 94.5,76.5 Z"/></g>
<g><path style="opacity:0.043" fill="#c4c4c4" d="M 206.5,84.5 C 206.573,86.0269 205.906,87.0269 204.5,87.5C 204.427,85.9731 205.094,84.9731 206.5,84.5 Z"/></g>
<g><path style="opacity:0.433" fill="#9d9d9d" d="M 320.5,82.5 C 320.169,91.1922 320.502,99.8589 321.5,108.5C 323.101,109.165 324.601,109.499 326,109.5C 326.801,112.367 326.634,115.034 325.5,117.5C 325.5,115.167 325.5,112.833 325.5,110.5C 323.533,110.739 321.699,110.406 320,109.5C 319.176,100.324 319.343,91.3238 320.5,82.5 Z"/></g>
<g><path style="opacity:0.71" fill="#6d6d6d" d="M 248.5,80.5 C 248.59,83.1522 247.924,85.4855 246.5,87.5C 246.5,86.8333 246.5,86.1667 246.5,85.5C 246.796,83.597 247.463,81.9303 248.5,80.5 Z"/></g>
<g><path style="opacity:0.596" fill="#6284cd" d="M 44.5,87.5 C 47.5,88.5 49.5,90.5 50.5,93.5C 48.1667,91.8333 46.1667,89.8333 44.5,87.5 Z"/></g>
<g><path style="opacity:0.123" fill="#cdcdcd" d="M 336.5,79.5 C 337.827,83.951 338.494,88.7843 338.5,94C 338.499,99.0119 338.166,103.845 337.5,108.5C 337.782,98.7807 337.449,89.1141 336.5,79.5 Z"/></g>
<g><path style="opacity:0.055" fill="#c1c1c1" d="M 203.5,88.5 C 202.738,90.2624 201.404,91.2624 199.5,91.5C 200.262,89.7376 201.596,88.7376 203.5,88.5 Z"/></g>
<g><path style="opacity:1" fill="#5270c8" d="M 66.5,84.5 C 68.5,85.8333 70.1667,87.5 71.5,89.5C 71.5,90.1667 71.5,90.8333 71.5,91.5C 70.5,91.5 69.5,91.5 68.5,91.5C 68.5997,88.8915 67.9331,86.5582 66.5,84.5 Z"/></g>
<g><path style="opacity:0.502" fill="#97b6e7" d="M 71.5,89.5 C 73.2459,91.2516 75.2459,92.5849 77.5,93.5C 77.5,94.1667 77.5,94.8333 77.5,95.5C 75.2459,94.5849 73.2459,93.2516 71.5,91.5C 71.5,90.8333 71.5,90.1667 71.5,89.5 Z"/></g>
<g><path style="opacity:0.278" fill="#d6d6d6" d="M 246.5,85.5 C 246.5,86.1667 246.5,86.8333 246.5,87.5C 246.5,92.5 246.5,97.5 246.5,102.5C 245.784,100.444 245.117,98.277 244.5,96C 244.36,92.4094 245.027,88.9094 246.5,85.5 Z"/></g>
<g><path style="opacity:1" fill="#3a63c9" d="M 79.5,90.5 C 82.9868,91.4446 84.3201,93.7779 83.5,97.5C 81.659,99.8485 80.3257,102.515 79.5,105.5C 76.3074,111.91 71.6407,113.077 65.5,109C 64.6195,108.292 63.9528,107.458 63.5,106.5C 67.6146,108.61 71.9479,108.943 76.5,107.5C 78.4527,103.481 80.1193,99.3144 81.5,95C 81.1667,94.5 80.8333,94 80.5,93.5C 79.4822,94.1925 78.4822,94.8592 77.5,95.5C 77.5,94.8333 77.5,94.1667 77.5,93.5C 78.9063,93.0269 79.573,92.0269 79.5,90.5 Z"/></g>
<g><path style="opacity:0.031" fill="#b7b7b7" d="M 199.5,91.5 C 197.898,93.0739 195.898,93.7406 193.5,93.5C 195.214,92.2616 197.214,91.595 199.5,91.5 Z"/></g>
<g><path style="opacity:1" fill="#209ee8" d="M 89.5,71.5 C 90.8965,75.2352 92.8965,75.9019 95.5,73.5C 95.7373,74.791 95.404,75.791 94.5,76.5C 93.8761,76.9169 93.5427,77.5836 93.5,78.5C 95.5145,80.7065 96.5145,83.3732 96.5,86.5C 101.981,88.7098 106.981,91.7098 111.5,95.5C 113.252,99.2273 113.919,103.227 113.5,107.5C 111.278,107.178 109.444,107.845 108,109.5C 108.077,108.262 107.911,107.262 107.5,106.5C 106.167,107.167 104.833,107.833 103.5,108.5C 99.3691,107.445 98.7024,105.445 101.5,102.5C 100.559,100.228 99.2255,98.2279 97.5,96.5C 98.0253,95.8076 98.6919,95.3076 99.5,95C 97.6667,94.5 96.5,93.3333 96,91.5C 95.5045,93.4727 95.3379,95.4727 95.5,97.5C 93.8561,97.7135 92.3561,97.3802 91,96.5C 89.4678,90.6273 86.3011,85.7939 81.5,82C 79.8659,81.5065 78.1992,81.3398 76.5,81.5C 76.687,79.4357 77.187,77.4357 78,75.5C 80.4973,77.4782 83.3307,77.9782 86.5,77C 85.7894,75.7453 84.956,74.5786 84,73.5C 81.3422,74.694 80.1756,73.694 80.5,70.5C 83.4552,71.1587 86.4552,71.4921 89.5,71.5 Z"/></g>
<g><path style="opacity:0.448" fill="#858585" d="M 161.5,60.5 C 162.831,68.1376 163.498,76.1376 163.5,84.5C 163.333,92.5 163.167,100.5 163,108.5C 161.989,109.337 160.822,109.67 159.5,109.5C 160.172,108.733 161.005,108.066 162,107.5C 162.817,91.7591 162.65,76.0924 161.5,60.5 Z"/></g>
<g><path style="opacity:1" fill="#4263cb" d="M 50.5,93.5 C 52.4672,93.2606 54.3005,93.5939 56,94.5C 57.2805,97.4474 59.2805,99.7807 62,101.5C 62.6077,103.154 63.1077,104.821 63.5,106.5C 58.8333,102.5 54.5,98.1667 50.5,93.5 Z"/></g>
<g><path style="opacity:0.604" fill="#7998c1" d="M 143.5,93.5 C 145.385,95.7954 145.885,98.462 145,101.5C 144.124,103.635 142.624,104.969 140.5,105.5C 143.115,101.991 144.115,97.9912 143.5,93.5 Z"/></g>
<g><path style="opacity:1" fill="#1c55d9" d="M 122.5,73.5 C 124.167,74.8333 125.833,76.1667 127.5,77.5C 132.119,82.7852 137.119,87.7852 142.5,92.5C 143.167,92.5 143.5,92.8333 143.5,93.5C 144.115,97.9912 143.115,101.991 140.5,105.5C 137.098,105.658 133.764,105.324 130.5,104.5C 128.973,104.573 127.973,103.906 127.5,102.5C 121.225,94.8875 114.558,87.5542 107.5,80.5C 106.585,78.2459 105.252,76.2459 103.5,74.5C 106.405,76.6692 109.738,78.0026 113.5,78.5C 112.675,79.3857 111.675,79.719 110.5,79.5C 110.329,82.7973 110.995,83.1306 112.5,80.5C 114.021,80.8797 115.687,81.0464 117.5,81C 119.037,82.1096 119.703,83.6096 119.5,85.5C 118.5,85.5 117.5,85.5 116.5,85.5C 116.351,86.552 116.517,87.552 117,88.5C 120.154,93.0142 124.321,95.8475 129.5,97C 130.977,99.4449 132.81,101.612 135,103.5C 137.501,103.05 139.667,102.05 141.5,100.5C 139.42,97.4575 136.753,96.1242 133.5,96.5C 134.376,95.7492 135.376,95.2492 136.5,95C 135.643,94.3109 134.977,93.4776 134.5,92.5C 135.428,91.2322 135.595,89.8989 135,88.5C 133.225,86.6055 131.225,84.9389 129,83.5C 128.779,80.0569 127.779,79.7236 126,82.5C 124.336,79.6729 123.17,76.6729 122.5,73.5 Z"/></g>
<g><path style="opacity:0.337" fill="#c1c1c1" d="M 258.5,97.5 C 259.612,99.5994 260.279,101.933 260.5,104.5C 259.883,104.389 259.383,104.056 259,103.5C 258.505,101.527 258.338,99.5273 258.5,97.5 Z"/></g>
<g><path style="opacity:0.192" fill="#a4b9ee" d="M 83.5,97.5 C 83.2064,100.754 81.873,103.421 79.5,105.5C 80.3257,102.515 81.659,99.8485 83.5,97.5 Z"/></g>
<g><path style="opacity:0.025" fill="#ececec" d="M 221.5,103.5 C 221.5,105.167 221.5,106.833 221.5,108.5C 221.158,109.338 220.492,109.672 219.5,109.5C 220.048,107.374 220.715,105.374 221.5,103.5 Z"/></g>
<g><path style="opacity:0.376" fill="#cacaca" d="M 246.5,103.5 C 247.404,104.209 247.737,105.209 247.5,106.5C 246.733,105.828 246.066,104.995 245.5,104C 245.728,103.601 246.062,103.435 246.5,103.5 Z"/></g>
<g><path style="opacity:0.545" fill="#6e89c8" d="M 130.5,104.5 C 133.764,105.324 137.098,105.658 140.5,105.5C 136.886,108.313 133.552,107.979 130.5,104.5 Z"/></g>
<g><path style="opacity:0.467" fill="#b7b7b7" d="M 260.5,105.5 C 262.525,107.196 264.525,108.863 266.5,110.5C 263.288,110.288 261.288,108.621 260.5,105.5 Z"/></g>
<g><path style="opacity:0.522" fill="#999999" d="M 278.5,103.5 C 277.833,107.5 275.5,109.833 271.5,110.5C 274.167,108.5 276.5,106.167 278.5,103.5 Z"/></g>
<g><path style="opacity:0.004" fill="#fefffe" d="M 351.5,106.5 C 352.833,107.167 352.833,107.167 351.5,106.5 Z"/></g>
<g><path style="opacity:0.02" fill="#f8f8f8" d="M 383.5,107.5 C 383.897,106.475 384.563,106.308 385.5,107C 384.906,107.464 384.239,107.631 383.5,107.5 Z"/></g>
<g><path style="opacity:0.012" fill="#fefffe" d="M 446.5,107.5 C 446.897,106.475 447.563,106.308 448.5,107C 447.906,107.464 447.239,107.631 446.5,107.5 Z"/></g>
<g><path style="opacity:0.733" fill="#999999" d="M 337.5,108.5 C 336.448,110.256 334.781,110.923 332.5,110.5C 333.93,109.463 335.597,108.796 337.5,108.5 Z"/></g>
<g><path style="opacity:0.624" fill="#949494" d="M 430.5,106.5 C 430.5,106.833 430.5,107.167 430.5,107.5C 430.423,108.75 429.756,109.583 428.5,110C 426.292,110.191 424.292,110.691 422.5,111.5C 421.509,108.998 422.342,108.332 425,109.5C 427.248,109.105 429.082,108.105 430.5,106.5 Z"/></g>
<g><path style="opacity:0.427" fill="#a1a1a1" d="M 249.5,111.5 C 251.264,112.326 252.598,113.659 253.5,115.5C 251.29,115.106 249.957,113.773 249.5,111.5 Z"/></g>
<g><path style="opacity:0.471" fill="#8c8c8c" d="M 253.5,115.5 C 255.027,115.427 256.027,116.094 256.5,117.5C 254.973,117.573 253.973,116.906 253.5,115.5 Z"/></g>
<g><path style="opacity:0.447" fill="#868686" d="M 159.5,109.5 C 157.798,111.8 157.132,114.467 157.5,117.5C 166.5,117.5 175.5,117.5 184.5,117.5C 184.5,114.833 184.5,112.167 184.5,109.5C 185.477,112.287 185.81,115.287 185.5,118.5C 175.833,118.5 166.167,118.5 156.5,118.5C 156.5,115.5 156.5,112.5 156.5,109.5C 157.5,109.5 158.5,109.5 159.5,109.5 Z"/></g>
<g><path style="opacity:0.49" fill="#6e6e6e" d="M 233.5,109.5 C 234.167,109.5 234.833,109.5 235.5,109.5C 236.833,109.5 238.167,109.5 239.5,109.5C 239.5,112.5 239.5,115.5 239.5,118.5C 231.316,118.826 223.316,118.492 215.5,117.5C 223.167,117.5 230.833,117.5 238.5,117.5C 238.5,115.167 238.5,112.833 238.5,110.5C 236.585,110.784 234.919,110.451 233.5,109.5 Z"/></g>
<g><path style="opacity:0.478" fill="#8d8d8d" d="M 295.5,109.5 C 296.21,111.893 296.877,114.393 297.5,117C 297.167,117.333 296.833,117.667 296.5,118C 291.25,118.193 286.083,118.693 281,119.5C 280.167,118.667 279.333,117.833 278.5,117C 279.84,114.821 279.507,114.321 277.5,115.5C 277.415,114.005 278.081,113.005 279.5,112.5C 280.452,114.045 280.785,115.712 280.5,117.5C 285.5,117.5 290.5,117.5 295.5,117.5C 295.5,115.167 295.5,112.833 295.5,110.5C 295.5,110.167 295.5,109.833 295.5,109.5 Z"/></g>
<g><path style="opacity:0.504" fill="#888888" d="M 304.5,76.5 C 305.822,76.33 306.989,76.6634 308,77.5C 308.667,87.8333 308.667,98.1667 308,108.5C 306.556,110.155 304.722,110.822 302.5,110.5C 302.5,112.833 302.5,115.167 302.5,117.5C 310.167,117.5 317.833,117.5 325.5,117.5C 325.631,118.239 325.464,118.906 325,119.5C 317.253,118.518 309.42,118.185 301.5,118.5C 301.768,115.881 301.435,113.381 300.5,111C 301.949,109.883 303.616,109.216 305.5,109C 306.357,108.311 307.023,107.478 307.5,106.5C 307.599,97.3412 307.432,88.0078 307,78.5C 306.005,77.9341 305.172,77.2674 304.5,76.5 Z"/></g>
<g><path style="opacity:0.506" fill="#7f7f7f" d="M 349.5,85.5 C 349.833,85.5 350.167,85.5 350.5,85.5C 350.28,92.5433 350.614,99.5433 351.5,106.5C 350.227,107.077 350.227,107.743 351.5,108.5C 352.967,108.723 354.467,109.056 356,109.5C 356.903,113.033 356.57,116.367 355,119.5C 347.667,118.167 340.333,118.167 333,119.5C 331.246,116.508 331.079,113.508 332.5,110.5C 332.5,112.833 332.5,115.167 332.5,117.5C 340.167,117.5 347.833,117.5 355.5,117.5C 355.5,115.167 355.5,112.833 355.5,110.5C 353.533,110.739 351.699,110.406 350,109.5C 349.5,101.507 349.334,93.5069 349.5,85.5 Z"/></g>
<g><path style="opacity:0.504" fill="#8e8e8e" d="M 405.5,109.5 C 406.239,109.369 406.906,109.536 407.5,110C 406.949,113.272 406.116,116.439 405,119.5C 397.333,118.167 389.667,118.167 382,119.5C 381.626,118.584 381.126,117.75 380.5,117C 380.728,116.601 381.062,116.435 381.5,116.5C 389.414,117.467 397.414,117.801 405.5,117.5C 405.5,114.833 405.5,112.167 405.5,109.5 Z"/></g>
<g><path style="opacity:0.512" fill="#909090" d="M 450.5,109.5 C 451.158,110.793 451.492,112.293 451.5,114C 451.577,116.051 451.077,117.884 450,119.5C 441,118.167 432,118.167 423,119.5C 422.536,118.906 422.369,118.239 422.5,117.5C 431.833,117.5 441.167,117.5 450.5,117.5C 450.5,114.833 450.5,112.167 450.5,109.5 Z"/></g>
<g><path style="opacity:0.694" fill="#727272" d="M 256.5,117.5 C 261.463,118.254 266.463,118.587 271.5,118.5C 269.696,119.162 267.696,119.495 265.5,119.5C 262.186,119.657 259.186,118.991 256.5,117.5 Z"/></g>
</svg>
